/vscmnt/brussel_pixiu_data/_data_brussel/112/vsc11236/PredSimResults/SUBJ10mtu3D/weighted-expIG/worker_04.mot
version=1
nRows=9
nColumns=50
inDegrees=yes
endheader
                time	         pelvis_tilt	         pelvis_list	     pelvis_rotation	           pelvis_tx	           pelvis_ty	           pelvis_tz	       hip_flexion_r	     hip_adduction_r	      hip_rotation_r	        knee_angle_r	       ankle_angle_r	         mtp_angle_r	       hip_flexion_l	     hip_adduction_l	      hip_rotation_l	        knee_angle_l	       ankle_angle_l	         mtp_angle_l	    lumbar_extension	      lumbar_bending	     lumbar_rotation	 ercspn_r/activation	 intobl_r/activation	 extobl_r/activation	    abd_r/activation	    add_r/activation	hamstrings_r/activation	bifemsh_r/activation	glut_max_r/activation	iliopsoas_r/activation	rect_fem_r/activation	  vasti_r/activation	gastroc_r/activation	 soleus_r/activation	tib_ant_r/activation	 ercspn_l/activation	 intobl_l/activation	 extobl_l/activation	    abd_l/activation	    add_l/activation	hamstrings_l/activation	bifemsh_l/activation	glut_max_l/activation	iliopsoas_l/activation	rect_fem_l/activation	  vasti_l/activation	gastroc_l/activation	 soleus_l/activation	tib_ant_l/activation	
          1.20375771	         -4.83113319	         -3.13175634	         10.64478979	          1.23987044	          0.82962657	         -0.01623814	         28.08831915	         -0.80490758	         -8.26043073	         -3.81204302	          6.66169303	          0.24982621	        -11.57443898	         -3.18057395	          6.60744535	         -8.11225225	         10.57949767	         23.78681375	         -6.30199785	          1.03719655	         -3.70337269	          0.08526402	          0.16494861	          0.02077930	          0.01200625	          0.13013812	          0.02309084	          0.08154746	          0.00999999	          0.06607672	          0.01449950	          0.01200625	          0.00999999	          0.00999999	          0.26507974	          0.03368809	          0.00999999	          0.00999999	          0.04317798	          0.03810219	          0.02563332	          0.12034081	          0.03596289	          0.30951098	          0.00999999	          0.00999999	          0.25734702	          0.24517404	          0.01555763	
          1.21579528	         -4.90339431	         -2.92157337	         10.46553467	          1.25483920	          0.82790872	         -0.01569766	         28.13651336	         -0.63596280	         -7.22986301	         -5.40502645	          6.38645251	          0.24429771	        -11.67502407	         -2.96420053	          5.91335961	         -9.84487318	         10.16076309	         25.41129727	         -6.07603211	          1.40683842	         -3.87648819	          0.07101629	          0.14255373	          0.01730705	          0.00999999	          0.18516196	          0.02515545	          0.07779989	          0.05190202	          0.05503521	          0.01207661	          0.00999999	          0.01864052	          0.01730706	          0.26940840	          0.07462488	          0.00999999	          0.00999999	          0.03596288	          0.08497263	          0.02134995	          0.10023170	          0.02995344	          0.32192214	          0.00999999	          0.00999999	          0.21704881	          0.23421175	          0.01295793	
          1.22783286	         -4.95965085	         -2.71846298	         10.22394959	          1.27012576	          0.82633951	         -0.01510530	         27.99937578	         -0.47185548	         -6.18849790	         -6.88134198	          6.08686337	          0.23860258	        -11.62663533	         -2.74175701	          5.16852754	        -11.91534308	          9.63091500	         27.02082984	         -5.83075620	          1.80441896	         -4.03025720	          0.06976831	          0.11873281	          0.01441502	          0.04941825	          0.16377594	          0.04003879	          0.07993256	          0.06078311	          0.04583875	          0.01005859	          0.00999999	          0.01552567	          0.01441503	          0.30064397	          0.08991638	          0.00999999	          0.00999999	          0.02995344	          0.07829385	          0.01778235	          0.08348285	          0.02494818	          0.31170138	          0.00999999	          0.00999999	          0.18077966	          0.21910162	          0.01079264	
          1.23987044	         -5.00152543	         -2.51972633	          9.92111415	          1.28552920	          0.82507418	         -0.01441101	         27.71768231	         -0.28639369	         -5.22394663	         -8.11914298	          5.71585896	          0.22754105	        -11.36666642	         -2.51598049	          4.37767382	        -14.38903625	          8.93472775	         28.56004354	         -5.58631750	          2.21648253	         -4.16169772	          0.07772045	          0.09889240	          0.01200625	          0.08920053	          0.16797637	          0.04029144	          0.06657572	          0.07774364	          0.03817903	          0.00999999	          0.00999999	          0.01293131	          0.01200626	          0.31744585	          0.11306878	          0.00999999	          0.00999999	          0.02494818	          0.08484742	          0.01855967	          0.06953275	          0.02077930	          0.29833926	          0.00999999	          0.00999999	          0.15057113	          0.19051896	          0.00999999	
          1.25190801	         -5.02926955	         -2.32989077	          9.56212541	          1.30086156	          0.82423545	         -0.01362274	         27.37322787	         -0.07745394	         -4.36121829	         -9.26213715	          5.37564793	          0.21878519	        -10.85588228	         -2.29616337	          3.53048007	        -17.29243160	          8.05255616	         29.88641286	         -5.35802885	          2.64627370	         -4.26798944	          0.07040313	          0.08236734	          0.00999999	          0.11039260	          0.16552938	          0.04199354	          0.05545083	          0.07758675	          0.03179927	          0.00999999	          0.03604044	          0.01077047	          0.01000000	          0.33564765	          0.13150930	          0.00999999	          0.00999999	          0.02077930	          0.09700470	          0.02204720	          0.05791373	          0.01730705	          0.27493265	          0.00999999	          0.00999999	          0.12541049	          0.15868298	          0.00999999	
          1.26394559	         -5.04382221	         -2.14988588	          9.15014882	          1.31599509	          0.82389982	         -0.01275562	         26.98585582	          0.14786437	         -3.59266366	        -10.32890986	          5.09996597	          0.20838694	        -10.07988080	         -2.09291826	          2.60739130	        -20.61313734	          6.99918643	         30.76832597	         -5.15600572	          3.09200615	         -4.34877973	          0.05863867	          0.06860365	          0.00999999	          0.12025173	          0.13786920	          0.04554376	          0.04618492	          0.06462190	          0.02648556	          0.00999999	          0.09708478	          0.00999999	          0.00999999	          0.34538025	          0.14251080	          0.00999999	          0.00999999	          0.01730705	          0.11156912	          0.02807570	          0.04823627	          0.01441502	          0.24168715	          0.00999999	          0.00999999	          0.10445423	          0.13216684	          0.00999999	
          1.27598317	         -5.04763043	         -1.97204771	          8.68539224	          1.33083889	          0.82415975	         -0.01183598	         26.52226062	          0.37634085	         -2.90653539	        -11.25497281	          4.94407033	          0.19715564	         -9.04420526	         -1.91227063	          1.59512031	        -24.29562673	          5.74813475	         31.01519733	         -4.98890947	          3.54390838	         -4.40278319	          0.04884007	          0.05713989	          0.00999999	          0.12264092	          0.11483107	          0.04558228	          0.03846736	          0.05561071	          0.02205979	          0.00999999	          0.14610637	          0.00999999	          0.00999999	          0.34544257	          0.14943558	          0.00999999	          0.00999999	          0.01441502	          0.12719840	          0.02373118	          0.04017592	          0.01200625	          0.20348087	          0.00999999	          0.00999999	          0.08699979	          0.11008158	          0.00999999	
          1.28802074	         -5.04281671	         -1.78382272	          8.16554645	          1.34536387	          0.82506951	         -0.01088933	         25.93806008	          0.59276499	         -2.28868019	        -11.96242877	          4.93156286	          0.18831698	         -7.78207997	         -1.75698127	          0.50755398	        -28.22324766	          4.17481408	         30.63428694	         -4.85959975	          3.98728512	         -4.42677975	          0.04067883	          0.04759173	          0.00999999	          0.11841590	          0.09564264	          0.04722569	          0.03203941	          0.05051811	          0.01837357	          0.00999999	          0.17044546	          0.00999999	          0.00999999	          0.33572814	          0.15370900	          0.00999999	          0.00999999	          0.01200625	          0.14137629	          0.02077931	          0.05060110	          0.00999999	          0.16947894	          0.00999999	          0.00999999	          0.07246200	          0.09168680	          0.00999999	
          1.30005832	         -5.03040792	         -1.56923427	          7.58885715	          1.35957443	          0.82658885	         -0.00993508	         25.21721687	          0.77738742	         -1.71228512	        -12.42347187	          5.04553177	          0.18342153	         -6.34240218	         -1.62138524	         -0.62701332	        -32.26984657	          2.29961583	         29.50289274	         -4.76798575	          4.40331772	         -4.41873378	          0.03388134	          0.03963909	          0.00999999	          0.12274623	          0.07966062	          0.04671846	          0.02668558	          0.04207646	          0.01530332	          0.00999999	          0.16691409	          0.00999999	          0.00999999	          0.31872746	          0.15412251	          0.00999999	          0.00999999	          0.00999999	          0.14511226	          0.01730706	          0.04214559	          0.00999999	          0.14115878	          0.00999999	          0.00999999	          0.06035350	          0.07636581	          0.04447078	
